<?xml version="1.0" encoding="UTF-8"?>
<svg id="Layer_2" xmlns="http://www.w3.org/2000/svg" viewBox="0 0 253.86 109.87">
  <defs>
    <style>
      .cls-1 {
        fill: #f0c62e;
        opacity: .5;
      }

      .cls-2 {
        fill: #fff;
      }

      .cls-3 {
        fill: none;
        stroke: #ada690;
        stroke-miterlimit: 10;
      }

      .cls-4 {
        fill: #c3342d;
        opacity: .25;
      }
    </style>
  </defs>
  <g id="OBJECTS">
    <g>
      <g>
        <g>
          <path d="M45.2,106.87c-.05-.92-.11-2.02-.1-2.84h-.03c-.22.77-.5,1.59-.83,2.5l-1.16,3.19h-.64l-1.06-3.13c-.31-.93-.58-1.77-.76-2.55h-.02c-.02.82-.07,1.92-.13,2.91l-.18,2.82h-.81l.46-6.57h1.08l1.12,3.18c.27.81.5,1.53.66,2.21h.03c.17-.66.4-1.38.69-2.21l1.17-3.18h1.08l.41,6.57h-.83l-.17-2.89Z"/>
          <path d="M51.8,107.36c0,1.75-1.21,2.51-2.35,2.51-1.28,0-2.26-.94-2.26-2.43,0-1.58,1.03-2.51,2.34-2.51s2.27.98,2.27,2.43ZM48.06,107.41c0,1.03.59,1.81,1.43,1.81s1.43-.77,1.43-1.83c0-.8-.4-1.81-1.41-1.81s-1.45.94-1.45,1.83Z"/>
          <path d="M52.89,106.32c0-.49,0-.89-.04-1.28h.76l.05.78h.02c.23-.45.78-.89,1.56-.89.65,0,1.67.39,1.67,2.01v2.82h-.86v-2.72c0-.76-.28-1.39-1.09-1.39-.57,0-1,.4-1.15.88-.04.11-.06.25-.06.4v2.84h-.86v-3.44Z"/>
        </g>
        <g>
          <path d="M80.26,103.91h-2v-.72h4.87v.72h-2.01v5.85h-.86v-5.85Z"/>
          <path d="M87.34,108.47c0,.49,0,.92.04,1.29h-.76l-.05-.77h-.02c-.22.38-.72.88-1.56.88-.74,0-1.63-.41-1.63-2.07v-2.76h.86v2.61c0,.9.27,1.5,1.05,1.5.58,0,.97-.4,1.13-.78.05-.13.08-.28.08-.44v-2.9h.86v3.43Z"/>
          <path d="M89.24,107.56c.02,1.16.76,1.64,1.62,1.64.61,0,.98-.11,1.31-.24l.15.61c-.3.14-.82.29-1.57.29-1.45,0-2.32-.96-2.32-2.38s.84-2.54,2.21-2.54c1.54,0,1.95,1.36,1.95,2.22,0,.18-.02.31-.03.4h-3.32ZM91.76,106.94c0-.55-.22-1.39-1.19-1.39-.87,0-1.25.8-1.32,1.39h2.51Z"/>
          <path d="M93.54,108.88c.25.17.7.34,1.13.34.62,0,.92-.31.92-.7,0-.41-.24-.63-.88-.87-.85-.3-1.25-.77-1.25-1.34,0-.76.61-1.38,1.63-1.38.48,0,.9.14,1.16.29l-.21.62c-.19-.12-.53-.27-.96-.27-.51,0-.79.29-.79.64,0,.39.28.57.9.8.82.31,1.24.72,1.24,1.42,0,.83-.64,1.41-1.76,1.41-.52,0-.99-.13-1.33-.32l.21-.65Z"/>
        </g>
        <g>
          <path d="M119.3,109.7l-1.71-6.74h.92l.8,3.41c.2.84.38,1.68.5,2.33h.02c.11-.67.32-1.47.55-2.34l.9-3.4h.91l.82,3.42c.19.8.37,1.6.47,2.31h.02c.14-.74.33-1.49.54-2.33l.89-3.4h.89l-1.91,6.74h-.91l-.85-3.51c-.21-.86-.35-1.52-.44-2.2h-.02c-.12.67-.27,1.33-.52,2.2l-.96,3.51h-.91Z"/>
          <path d="M126.79,107.44c.02,1.19.78,1.68,1.66,1.68.63,0,1.01-.11,1.34-.25l.15.63c-.31.14-.84.3-1.61.3-1.49,0-2.38-.98-2.38-2.44s.86-2.61,2.27-2.61c1.58,0,2,1.39,2,2.28,0,.18-.02.32-.03.41h-3.4ZM129.37,106.81c0-.56-.23-1.43-1.22-1.43-.89,0-1.28.82-1.35,1.43h2.57Z"/>
          <path d="M135.49,102.6v5.85c0,.43,0,.92.04,1.25h-.79l-.04-.84h-.02c-.27.54-.86.95-1.65.95-1.17,0-2.07-.99-2.07-2.46,0-1.61.99-2.6,2.17-2.6.74,0,1.24.35,1.46.74h.02v-2.89h.88ZM134.61,106.83c0-.11,0-.26-.04-.37-.13-.56-.61-1.02-1.27-1.02-.91,0-1.45.8-1.45,1.87,0,.98.48,1.79,1.43,1.79.59,0,1.13-.39,1.29-1.05.03-.12.04-.24.04-.38v-.84Z"/>
        </g>
        <g>
          <path d="M159.52,103.7h-2.05v-.74h4.99v.74h-2.06v6h-.88v-6Z"/>
          <path d="M163.11,102.6h.88v3.02h.02c.14-.25.36-.47.63-.62.26-.15.57-.25.9-.25.65,0,1.69.4,1.69,2.07v2.88h-.88v-2.78c0-.78-.29-1.44-1.12-1.44-.57,0-1.02.4-1.18.88-.05.12-.06.25-.06.42v2.92h-.88v-7.1Z"/>
          <path d="M172.71,108.38c0,.5,0,.94.04,1.32h-.78l-.05-.79h-.02c-.23.39-.74.9-1.6.9-.76,0-1.67-.42-1.67-2.12v-2.83h.88v2.68c0,.92.28,1.54,1.08,1.54.59,0,1-.41,1.16-.8.05-.13.08-.29.08-.45v-2.97h.88v3.52Z"/>
          <path d="M174.17,106.37c0-.57,0-1.06-.04-1.51h.77l.03.95h.04c.22-.65.75-1.06,1.34-1.06.1,0,.17,0,.25.03v.83c-.09-.02-.18-.03-.3-.03-.62,0-1.06.47-1.18,1.13-.02.12-.04.26-.04.41v2.58h-.87v-3.33Z"/>
        </g>
        <g>
          <path d="M202.97,102.96h3.63v.73h-2.76v2.24h2.55v.72h-2.55v3.05h-.87v-6.74Z"/>
          <path d="M207.55,106.37c0-.57,0-1.06-.04-1.51h.77l.03.95h.04c.22-.65.75-1.06,1.34-1.06.1,0,.17,0,.25.03v.83c-.09-.02-.18-.03-.3-.03-.62,0-1.06.47-1.18,1.13-.02.12-.04.26-.04.41v2.58h-.87v-3.33Z"/>
          <path d="M211.84,103.5c0,.3-.21.54-.56.54-.31,0-.53-.24-.53-.54s.23-.55.55-.55.54.24.54.55ZM210.86,109.7v-4.84h.88v4.84h-.88Z"/>
        </g>
        <g>
          <path d="M241.71,108.64c.39.24.96.44,1.56.44.89,0,1.41-.47,1.41-1.15,0-.63-.36-.99-1.27-1.34-1.1-.39-1.78-.96-1.78-1.91,0-1.05.87-1.83,2.18-1.83.69,0,1.19.16,1.49.33l-.24.71c-.22-.12-.67-.32-1.28-.32-.92,0-1.27.55-1.27,1.01,0,.63.41.94,1.34,1.3,1.14.44,1.72.99,1.72,1.98,0,1.04-.77,1.94-2.36,1.94-.65,0-1.36-.19-1.72-.43l.22-.73Z"/>
          <path d="M249.44,109.7l-.07-.61h-.03c-.27.38-.79.72-1.48.72-.98,0-1.48-.69-1.48-1.39,0-1.17,1.04-1.81,2.91-1.8v-.1c0-.4-.11-1.12-1.1-1.12-.45,0-.92.14-1.26.36l-.2-.58c.4-.26.98-.43,1.59-.43,1.48,0,1.84,1.01,1.84,1.98v1.81c0,.42.02.83.08,1.16h-.8ZM249.31,107.23c-.96-.02-2.05.15-2.05,1.09,0,.57.38.84.83.84.63,0,1.03-.4,1.17-.81.03-.09.05-.19.05-.28v-.84Z"/>
          <path d="M252.6,103.47v1.39h1.26v.67h-1.26v2.61c0,.6.17.94.66.94.23,0,.4-.03.51-.06l.04.66c-.17.07-.44.12-.78.12-.41,0-.74-.13-.95-.37-.25-.26-.34-.69-.34-1.26v-2.64h-.75v-.67h.75v-1.16l.86-.23Z"/>
        </g>
        <g>
          <path d="M1.8,108.73c.38.23.94.43,1.52.43.87,0,1.37-.46,1.37-1.12,0-.61-.35-.97-1.24-1.31-1.07-.38-1.74-.94-1.74-1.86,0-1.02.85-1.78,2.13-1.78.67,0,1.16.16,1.45.32l-.23.69c-.21-.12-.65-.31-1.25-.31-.9,0-1.24.54-1.24.98,0,.61.4.92,1.31,1.27,1.11.43,1.68.97,1.68,1.93,0,1.01-.75,1.89-2.3,1.89-.63,0-1.33-.19-1.68-.42l.21-.71Z"/>
          <path d="M10.65,108.47c0,.49,0,.92.04,1.29h-.76l-.05-.77h-.02c-.22.38-.72.88-1.56.88-.74,0-1.63-.41-1.63-2.07v-2.76h.86v2.61c0,.9.27,1.5,1.05,1.5.58,0,.97-.4,1.13-.78.05-.13.08-.28.08-.44v-2.9h.86v3.43Z"/>
          <path d="M12.08,106.32c0-.49,0-.89-.04-1.28h.76l.05.78h.02c.23-.45.78-.89,1.56-.89.65,0,1.67.39,1.67,2.01v2.82h-.86v-2.72c0-.76-.28-1.39-1.09-1.39-.57,0-1,.4-1.15.88-.04.11-.06.25-.06.4v2.84h-.86v-3.44Z"/>
        </g>
      </g>
      <g>
        <rect class="cls-2" y="15.31" width="249" height="84"/>
        <path class="cls-1" d="M.11,59.45s3.8-8.34,14.38-2.94,19.36,14.19,36.92,11.26,32.2-18.54,50.74-19.51,29.89,10.65,41.78,8.25,31.4-21.91,47.98-21.91,28.29,11.71,39.03,13.66,18.08,3.22,18.08,3.22v48.3H.11v-40.33Z"/>
        <path class="cls-4" d="M.11,53.19s16.89,2.48,32.64,2.48,20.62-19.51,40.13-16.59,39.7,30.79,58.88,30.52c19.18-.27,29.91-11,44.54-2.22,14.64,8.78,10.73,13.32,26.34,12.02,15.61-1.29,20.74-21.15,34.76-20.98s12.07,4.07,12.07,4.07l.09,37.28H.11v-46.59Z"/>
        <polyline class="cls-3" points=".6 14.89 .6 99.78 247.93 99.78"/>
      </g>
      <g>
        <g>
          <path d="M40.1.17v3.89c0,1.47.65,2.1,1.53,2.1.97,0,1.6-.64,1.6-2.1V.17h.86v3.83c0,2.02-1.06,2.85-2.49,2.85-1.35,0-2.36-.77-2.36-2.81V.17h.86Z"/>
          <path d="M45.36,5.87c.25.17.7.34,1.13.34.62,0,.92-.31.92-.7,0-.41-.24-.63-.88-.87-.85-.3-1.25-.77-1.25-1.34,0-.76.61-1.38,1.63-1.38.48,0,.9.14,1.16.29l-.21.62c-.19-.12-.53-.27-.96-.27-.51,0-.79.29-.79.64,0,.39.28.57.9.8.82.31,1.24.72,1.24,1.42,0,.83-.64,1.41-1.76,1.41-.52,0-.99-.13-1.33-.32l.21-.65Z"/>
          <path d="M51.96,6.74l-.07-.59h-.03c-.26.37-.77.7-1.44.7-.96,0-1.44-.67-1.44-1.36,0-1.14,1.01-1.76,2.84-1.75v-.1c0-.39-.11-1.09-1.07-1.09-.44,0-.9.14-1.23.35l-.2-.57c.39-.25.96-.42,1.55-.42,1.44,0,1.79.98,1.79,1.93v1.77c0,.41.02.81.08,1.13h-.78ZM51.83,4.34c-.94-.02-2,.15-2,1.06,0,.56.37.82.81.82.61,0,1-.39,1.14-.79.03-.09.05-.19.05-.27v-.82Z"/>
          <path d="M58.11,2.02c-.02.34-.04.72-.04,1.3v2.74c0,1.08-.21,1.75-.67,2.15-.46.43-1.12.57-1.72.57s-1.19-.14-1.57-.39l.21-.65c.31.19.8.37,1.38.37.88,0,1.52-.46,1.52-1.65v-.53h-.02c-.26.44-.77.79-1.5.79-1.17,0-2.01-.99-2.01-2.3,0-1.6,1.04-2.51,2.13-2.51.82,0,1.27.43,1.47.82h.02l.04-.71h.75ZM57.23,3.89c0-.15,0-.27-.05-.39-.16-.5-.58-.91-1.2-.91-.82,0-1.4.69-1.4,1.78,0,.93.47,1.7,1.39,1.7.53,0,1-.33,1.19-.88.05-.15.07-.31.07-.46v-.85Z"/>
          <path d="M59.98,4.54c.02,1.16.76,1.64,1.62,1.64.61,0,.98-.11,1.31-.24l.15.61c-.3.14-.82.29-1.57.29-1.45,0-2.32-.96-2.32-2.38s.84-2.54,2.21-2.54c1.54,0,1.95,1.36,1.95,2.22,0,.18-.02.31-.03.4h-3.32ZM62.49,3.93c0-.55-.22-1.39-1.19-1.39-.87,0-1.25.8-1.32,1.39h2.51Z"/>
        </g>
        <g>
          <path d="M129.64,8.46c-.31.16-.94.31-1.74.31-1.85,0-3.25-1.17-3.25-3.33s1.39-3.45,3.43-3.45c.82,0,1.34.18,1.56.29l-.2.69c-.32-.16-.78-.27-1.33-.27-1.54,0-2.56.98-2.56,2.71,0,1.61.93,2.64,2.53,2.64.52,0,1.04-.11,1.38-.27l.17.67Z"/>
          <path d="M134.84,6.28c0,1.75-1.21,2.51-2.35,2.51-1.28,0-2.26-.94-2.26-2.43,0-1.58,1.03-2.51,2.34-2.51s2.27.98,2.27,2.43ZM131.1,6.32c0,1.03.59,1.81,1.43,1.81s1.43-.77,1.43-1.83c0-.8-.4-1.81-1.41-1.81s-1.45.94-1.45,1.83Z"/>
          <path d="M135.93,5.43c0-.56,0-1.03-.04-1.47h.75l.03.93h.04c.21-.63.73-1.03,1.31-1.03.1,0,.17,0,.24.03v.81c-.09-.02-.18-.03-.29-.03-.6,0-1.03.46-1.15,1.1-.02.12-.04.25-.04.4v2.52h-.85v-3.25Z"/>
          <path d="M139.16,5.43c0-.56,0-1.03-.04-1.47h.75l.03.93h.04c.21-.63.73-1.03,1.31-1.03.1,0,.17,0,.24.03v.81c-.09-.02-.18-.03-.29-.03-.6,0-1.03.46-1.15,1.1-.02.12-.04.25-.04.4v2.52h-.85v-3.25Z"/>
          <path d="M142.73,6.47c.02,1.16.76,1.64,1.62,1.64.61,0,.98-.11,1.31-.24l.15.61c-.3.14-.82.29-1.57.29-1.45,0-2.32-.96-2.32-2.38s.84-2.54,2.21-2.54c1.54,0,1.95,1.36,1.95,2.22,0,.18-.02.31-.03.4h-3.32ZM145.24,5.86c0-.55-.22-1.39-1.19-1.39-.87,0-1.25.8-1.32,1.39h2.51Z"/>
          <path d="M150.5,8.5c-.22.12-.72.27-1.35.27-1.42,0-2.35-.97-2.35-2.41s1-2.51,2.54-2.51c.51,0,.96.13,1.19.24l-.19.66c-.21-.12-.53-.22-1-.22-1.08,0-1.67.8-1.67,1.78,0,1.09.7,1.76,1.64,1.76.49,0,.81-.13,1.05-.23l.15.64Z"/>
          <path d="M152.67,2.6v1.36h1.23v.65h-1.23v2.54c0,.58.17.92.64.92.22,0,.39-.03.5-.06l.04.64c-.17.07-.43.12-.76.12-.4,0-.72-.13-.93-.36-.24-.25-.33-.67-.33-1.23v-2.57h-.73v-.65h.73v-1.13l.84-.22Z"/>
          <path d="M158.02,6.61l-.68,2.07h-.88l2.23-6.57h1.02l2.24,6.57h-.91l-.7-2.07h-2.33ZM160.18,5.94l-.64-1.89c-.15-.43-.24-.82-.34-1.2h-.02c-.1.39-.2.79-.33,1.19l-.64,1.9h1.98Z"/>
          <path d="M162.87,5.23c0-.49,0-.89-.04-1.28h.76l.05.78h.02c.23-.45.78-.89,1.56-.89.65,0,1.67.39,1.67,2.01v2.82h-.86v-2.72c0-.76-.28-1.39-1.09-1.39-.57,0-1,.4-1.15.88-.04.11-.06.25-.06.4v2.84h-.86v-3.44Z"/>
          <path d="M168.17,7.8c.25.17.7.34,1.13.34.62,0,.92-.31.92-.7,0-.41-.24-.63-.88-.87-.85-.3-1.25-.77-1.25-1.34,0-.76.61-1.38,1.63-1.38.48,0,.9.14,1.16.29l-.21.62c-.19-.12-.53-.27-.96-.27-.51,0-.79.29-.79.64,0,.39.28.57.9.8.82.31,1.24.72,1.24,1.42,0,.83-.64,1.41-1.76,1.41-.52,0-.99-.13-1.33-.32l.21-.65Z"/>
          <path d="M172.49,3.95l.62,2.4c.14.53.26,1.01.35,1.5h.03c.11-.48.26-.98.42-1.49l.77-2.41h.72l.73,2.36c.18.57.31,1.06.42,1.54h.03c.08-.48.2-.98.36-1.53l.67-2.37h.85l-1.52,4.72h-.78l-.72-2.25c-.17-.53-.3-.99-.42-1.55h-.02c-.12.57-.26,1.05-.43,1.56l-.76,2.24h-.78l-1.42-4.72h.88Z"/>
          <path d="M179.71,6.47c.02,1.16.76,1.64,1.62,1.64.62,0,.99-.11,1.31-.24l.15.61c-.3.14-.82.29-1.57.29-1.45,0-2.32-.96-2.32-2.38s.84-2.54,2.21-2.54c1.54,0,1.95,1.36,1.95,2.22,0,.18-.02.31-.03.4h-3.32ZM182.23,5.86c0-.55-.22-1.39-1.19-1.39-.87,0-1.25.8-1.32,1.39h2.51Z"/>
          <path d="M184.12,5.43c0-.56,0-1.03-.04-1.47h.75l.03.93h.04c.21-.63.73-1.03,1.31-1.03.1,0,.17,0,.24.03v.81c-.09-.02-.18-.03-.29-.03-.6,0-1.03.46-1.15,1.1-.02.12-.04.25-.04.4v2.52h-.85v-3.25Z"/>
          <path d="M187.2,7.8c.25.17.7.34,1.13.34.62,0,.92-.31.92-.7,0-.41-.24-.63-.88-.87-.85-.3-1.25-.77-1.25-1.34,0-.76.61-1.38,1.63-1.38.48,0,.9.14,1.16.29l-.21.62c-.19-.12-.53-.27-.96-.27-.51,0-.79.29-.79.64,0,.39.28.57.9.8.82.31,1.24.72,1.24,1.42,0,.83-.64,1.41-1.76,1.41-.52,0-.99-.13-1.33-.32l.21-.65Z"/>
        </g>
        <rect class="cls-4" x="27.43" width="8.78" height="8.78"/>
        <rect class="cls-1" x="109.39" width="8.78" height="8.78"/>
      </g>
    </g>
  </g>
</svg>