<?xml version="1.0" encoding="UTF-8"?>
<svg xmlns="http://www.w3.org/2000/svg" version="1.1" viewBox="0 0 512 512">
  <defs>
    <style>
      .cls-1 {
        fill: #fff;
        fill-rule: evenodd;
      }
    </style>
  </defs>
  <!-- Generator: Adobe Illustrator 28.6.0, SVG Export Plug-In . SVG Version: 1.2.0 Build 709)  -->
  <g>
    <g id="Layer_1">
      <g id="Icon">
        <path class="cls-1" d="M191,230.7s10.1,24.3,10.1,24.3c4.4,2.2,8.7,4.6,12.8,7.4l26.1-3.4c5.3-.7,10.6,1.3,14.1,5.3,11.4,13,20.1,28.1,25.7,44.5,1.7,5.1.8,10.6-2.5,14.9,0,0-16,20.9-16,20.9.3,4.9.3,9.8,0,14.7l16,20.9c3.3,4.2,4.2,9.8,2.5,14.9-5.6,16.4-14.3,31.4-25.7,44.5-3.5,4-8.8,6-14.1,5.3l-26.1-3.4c-4.1,2.7-8.3,5.2-12.7,7.4l-10.1,24.3c-2,4.9-6.4,8.5-11.7,9.6-17,3.3-34.4,3.3-51.3,0-5.2-1-9.6-4.6-11.7-9.6,0,0-10.1-24.3-10.1-24.3-4.4-2.2-8.7-4.6-12.8-7.4l-26.1,3.4c-5.3.7-10.6-1.3-14.1-5.3-11.4-13-20.1-28.1-25.7-44.5-1.7-5.1-.8-10.6,2.5-14.9,0,0,16-20.9,16-20.9-.3-4.9-.3-9.8,0-14.7l-16-20.9c-3.3-4.2-4.2-9.8-2.5-14.9,5.6-16.4,14.3-31.4,25.7-44.5,3.5-4,8.8-6,14.1-5.3l26.1,3.4c4.1-2.7,8.3-5.2,12.7-7.4l10.1-24.3c2-4.9,6.4-8.5,11.7-9.6,17-3.3,34.4-3.3,51.3,0,5.2,1,9.6,4.6,11.7,9.6h0ZM153.7,311.8c-22.2,0-40.2,18-40.2,40.2s18,40.2,40.2,40.2,40.2-18,40.2-40.2-18-40.2-40.2-40.2h0Z"/>
        <path class="cls-1" d="M185.9,200.8c-.1-4.9,0-9.8.4-14.7l-22.3-29.1c-3.2-4.3-4.2-9.9-2.4-14.9,7.2-20.9,18.3-40.3,32.9-56.9,3.5-4,8.8-6,14.1-5.4,0,0,36.4,4.8,36.4,4.8,6.2-4.3,12.7-8,19.5-11.3l14.1-33.9c2.1-4.9,6.4-8.5,11.7-9.6,21.7-4.3,44-4.3,65.7,0,5.2,1,9.6,4.6,11.7,9.6,0,0,14.1,33.9,14.1,33.9,6.8,3.2,13.3,7,19.5,11.2l36.4-4.8c5.3-.7,10.6,1.3,14.1,5.4,14.5,16.7,25.7,36,32.9,56.9,1.7,5.1.8,10.6-2.5,14.9,0,0-22.3,29.1-22.3,29.1.6,7.5.6,15,0,22.5l22.3,29.1c3.3,4.3,4.2,9.9,2.5,14.9-7.2,20.9-18.3,40.3-32.9,56.9-3.5,4-8.8,6-14.1,5.4,0,0-36.4-4.8-36.4-4.8-6.2,4.3-12.7,8-19.5,11.3l-14.1,33.9c-2,4.9-6.4,8.5-11.7,9.6-20.8,4.1-42.2,4.3-63.1.5l-9.8-12.9v-.9c4.7-6.2,11.4-14.8,11.4-14.8,7.6-9.9,9.7-23,5.7-34.8-6.5-19-16.6-36.5-29.8-51.6-8.2-9.4-20.6-14.1-33-12.5l-18.6,2.4-.8-.4c-3-7.2-7.2-17.3-7.2-17.3-4.5-10.8-13.7-18.8-24.9-21.8h0ZM323,144.3c-29.3,0-53,23.8-53,53s23.8,53,53,53,53-23.8,53-53-23.8-53-53-53h0Z"/>
      </g>
    </g>
  </g>
</svg>